<svg width="25" height="24" viewBox="0 0 25 24" fill="none" xmlns="http://www.w3.org/2000/svg">
<g id="business" clip-path="url(#clip0_6057_43152)">
<path id="Vector" d="M12.5 7V5C12.5 3.9 11.6 3 10.5 3H4.5C3.4 3 2.5 3.9 2.5 5V19C2.5 20.1 3.4 21 4.5 21H20.5C21.6 21 22.5 20.1 22.5 19V9C22.5 7.9 21.6 7 20.5 7H12.5ZM6.5 19H4.5V17H6.5V19ZM6.5 15H4.5V13H6.5V15ZM6.5 11H4.5V9H6.5V11ZM6.5 7H4.5V5H6.5V7ZM10.5 19H8.5V17H10.5V19ZM10.5 15H8.5V13H10.5V15ZM10.5 11H8.5V9H10.5V11ZM10.5 7H8.5V5H10.5V7ZM19.5 19H12.5V17H14.5V15H12.5V13H14.5V11H12.5V9H19.5C20.05 9 20.5 9.45 20.5 10V18C20.5 18.55 20.05 19 19.5 19ZM18.5 11H16.5V13H18.5V11ZM18.5 15H16.5V17H18.5V15Z" fill="white"/>
</g>
<defs>
<clipPath id="clip0_6057_43152">
<rect width="24" height="24" fill="white" transform="translate(0.5)"/>
</clipPath>
</defs>
</svg>
