<svg width="163" height="56" viewBox="0 0 163 56" fill="none" xmlns="http://www.w3.org/2000/svg">
<path fill-rule="evenodd" clip-rule="evenodd" d="M29.4355 34.5311H25.846L24.9941 30.7623C21.9856 34.1735 19.2517 35.2964 15.3449 35.2964C5.74459 35.2964 0.000976562 27.6671 0.000976562 18.511C0.000976562 9.3598 5.74459 1.73053 15.3449 1.73053C22.3469 1.73053 28.2248 5.45546 29.0767 12.6795H23.6028C23.0633 8.46274 19.3835 6.30736 15.3449 6.30736C8.47848 6.30736 5.61034 12.3671 5.61034 18.511C5.61034 24.6598 8.47848 30.7196 15.3449 30.7196C21.0886 30.805 24.2325 27.3522 24.318 21.9223H15.7953V17.6603H29.4355V34.5311Z" fill="#FF8C00"/>
<path fill-rule="evenodd" clip-rule="evenodd" d="M40.3437 18.5116C40.3437 24.6592 43.2168 30.7189 50.0783 30.7189C56.9424 30.7189 59.8154 24.6592 59.8154 18.5116C59.8154 12.3665 56.9424 6.30675 50.0783 6.30675C43.2168 6.30675 40.3437 12.3665 40.3437 18.5116ZM65.4248 18.5116C65.4248 27.6665 59.6824 35.2958 50.0783 35.2958C40.4755 35.2958 34.7332 27.6665 34.7332 18.5116C34.7332 9.35919 40.4755 1.72992 50.0783 1.72992C59.6824 1.72992 65.4248 9.35919 65.4248 18.5116Z" fill="#FF8C00"/>
<path fill-rule="evenodd" clip-rule="evenodd" d="M76.9464 21.7888H86.7299L81.926 8.01311H81.8809H81.7942L76.9464 21.7888ZM78.9199 2.49285H84.8869L97.2309 34.5306H91.2151L88.2091 26.0495H75.4208L72.416 34.5306H66.6296L78.9199 2.49285Z" fill="#FF8C00"/>
<path fill-rule="evenodd" clip-rule="evenodd" d="M105.889 17.0772H115.091C118.632 17.0772 120.564 15.3258 120.564 11.9609C120.564 7.87837 117.917 7.06919 115.001 7.06919H105.889V17.0772ZM100.282 2.49358H115.582C122.582 2.49358 126.173 5.72421 126.173 11.1542C126.173 17.3018 121.653 19.4974 120.618 19.8562V19.9466C122.765 20.94 124.025 23.9022 125.53 27.5539C126.505 29.9253 127.611 32.5957 128.047 34.5314H122.29C121.355 30.8065 120.826 29.1576 119.549 26.6177C118.079 23.6959 116.222 21.3391 113.782 21.3391H105.889V34.5314H100.282V2.49358Z" fill="#FF8C00"/>
<path fill-rule="evenodd" clip-rule="evenodd" d="M132.654 2.49333H138.576L153.202 26.0963H153.293V2.49333H158.634V34.5324H152.709L138.129 10.9745H137.993V34.5324H132.654V2.49333Z" fill="#FF8C00"/>
<path fill-rule="evenodd" clip-rule="evenodd" d="M5.1937 49.3796H4.58956L4.44677 48.7242C3.94026 49.3161 3.47892 49.5102 2.81986 49.5102C1.20149 49.5102 0.233643 48.1847 0.233643 46.5944C0.233643 45.0017 1.20149 43.675 2.81986 43.675C3.99885 43.675 4.98988 44.3231 5.1339 45.579H4.21121C4.1209 44.8443 3.49967 44.4708 2.81986 44.4708C1.66283 44.4708 1.17708 45.5241 1.17708 46.5944C1.17708 47.6624 1.66283 48.7144 2.81986 48.7144C3.78892 48.7315 4.31617 48.131 4.33204 47.1852H2.89431V46.4455H5.1937V49.3796Z" fill="#FF8C00"/>
<mask id="mask0_0_21" style="mask-type:alpha" maskUnits="userSpaceOnUse" x="0" y="0" width="163" height="56">
<path fill-rule="evenodd" clip-rule="evenodd" d="M0 55.354H162.315V0H0V55.354Z" fill="white"/>
</mask>
<g mask="url(#mask0_0_21)">
<path fill-rule="evenodd" clip-rule="evenodd" d="M6.1318 49.3797H6.99347V43.8082H6.1318V49.3797Z" fill="#FF8C00"/>
<path fill-rule="evenodd" clip-rule="evenodd" d="M10.8373 47.357C10.8373 46.665 10.4981 45.9376 9.72548 45.9376C8.95413 45.9376 8.61484 46.665 8.61484 47.357C8.61484 48.06 8.95413 48.785 9.72548 48.785C10.4981 48.785 10.8373 48.06 10.8373 47.357ZM7.75195 47.357C7.75195 46.1243 8.47204 45.2346 9.72548 45.2346C10.9814 45.2346 11.7002 46.1243 11.7002 47.357C11.7002 48.5982 10.9814 49.488 9.72548 49.488C8.47204 49.488 7.75195 48.5982 7.75195 47.357Z" fill="#FF8C00"/>
<path fill-rule="evenodd" clip-rule="evenodd" d="M14.3749 45.9374C13.6487 45.9374 13.2789 46.5074 13.2789 47.3654C13.2789 48.1783 13.6792 48.7861 14.3749 48.7861C15.1621 48.7861 15.4575 48.0672 15.4575 47.3654C15.4575 46.6319 15.0864 45.9374 14.3749 45.9374ZM12.4465 43.8065H13.3082V45.8654H13.3241C13.5584 45.4749 14.0503 45.2344 14.4896 45.2344C15.7211 45.2344 16.3191 46.2047 16.3191 47.3801C16.3191 48.4651 15.7894 49.4878 14.6324 49.4878C14.1027 49.4878 13.5352 49.3536 13.2789 48.8239H13.263V49.3792H12.4465V43.8065Z" fill="#FF8C00"/>
<path fill-rule="evenodd" clip-rule="evenodd" d="M19.4632 47.357C19.1995 47.5364 18.7821 47.5303 18.4062 47.5987C18.034 47.6621 17.702 47.8013 17.702 48.2711C17.702 48.6678 18.1926 48.785 18.4953 48.785C18.8749 48.785 19.4632 48.5824 19.4632 48.0209V47.357ZM20.326 48.4823C20.326 48.7032 20.3712 48.785 20.5299 48.785C20.5823 48.785 20.6519 48.785 20.741 48.7703V49.3867C20.6129 49.4343 20.3419 49.488 20.1979 49.488C19.8488 49.488 19.5986 49.3623 19.5327 48.9961C19.191 49.3403 18.6381 49.488 18.1768 49.488C17.4738 49.488 16.8403 49.0986 16.8403 48.3078C16.8403 47.3033 17.6178 47.1385 18.3428 47.0531C18.964 46.9372 19.5169 47.0067 19.5169 46.4844C19.5169 46.023 19.0555 45.9376 18.7065 45.9376C18.2231 45.9376 17.8826 46.1402 17.8436 46.5783H16.9831C17.0429 45.5397 17.8985 45.2346 18.7614 45.2346C19.5254 45.2346 20.326 45.5556 20.326 46.4075V48.4823Z" fill="#FF8C00"/>
<path fill-rule="evenodd" clip-rule="evenodd" d="M21.2828 49.3797H22.1457V43.8082H21.2828V49.3797Z" fill="#FF8C00"/>
<path fill-rule="evenodd" clip-rule="evenodd" d="M25.9696 46.5942C25.9696 47.6621 26.4541 48.7142 27.6123 48.7142C28.7694 48.7142 29.2527 47.6621 29.2527 46.5942C29.2527 45.5238 28.7694 44.4705 27.6123 44.4705C26.4541 44.4705 25.9696 45.5238 25.9696 46.5942ZM30.1998 46.5942C30.1998 48.1845 29.2319 49.5124 27.6123 49.5124C25.994 49.5124 25.0249 48.1845 25.0249 46.5942C25.0249 45.0002 25.994 43.6748 27.6123 43.6748C29.2319 43.6748 30.1998 45.0002 30.1998 46.5942Z" fill="#FF8C00"/>
<path fill-rule="evenodd" clip-rule="evenodd" d="M34.3795 49.3796H33.5337V48.8169H33.5166C33.3067 49.2221 32.8356 49.4882 32.406 49.4882C31.3844 49.4882 30.9463 48.9573 30.9463 47.9028V45.3434H31.808V47.8186C31.808 48.5265 32.0874 48.7852 32.5573 48.7852C33.2762 48.7852 33.5166 48.308 33.5166 47.6843V45.3434H34.3795V49.3796Z" fill="#FF8C00"/>
<path fill-rule="evenodd" clip-rule="evenodd" d="M34.9004 45.345H35.5497V44.1343H36.4114V45.345H37.1912V46.009H36.4114V48.1619C36.4114 48.5268 36.4431 48.7148 36.8288 48.7148C36.9496 48.7148 37.0692 48.7148 37.1912 48.6831V49.3702C37.0033 49.3873 36.8202 49.4178 36.6323 49.4178C35.7315 49.4178 35.5668 49.0577 35.5497 48.3877V46.009H34.9004V45.345Z" fill="#FF8C00"/>
<path fill-rule="evenodd" clip-rule="evenodd" d="M39.7658 45.9374C39.0396 45.9374 38.6673 46.5074 38.6673 47.3654C38.6673 48.1783 39.0689 48.7861 39.7658 48.7861C40.5505 48.7861 40.8459 48.0672 40.8459 47.3654C40.8459 46.6319 40.4773 45.9374 39.7658 45.9374ZM37.8362 43.8065H38.6991V45.8654H38.7149C38.948 45.4749 39.4399 45.2344 39.8781 45.2344C41.1108 45.2344 41.71 46.2047 41.71 47.3801C41.71 48.4651 41.1803 49.4878 40.0233 49.4878C39.4936 49.4878 38.9249 49.3536 38.6673 48.8239H38.6539V49.3792H37.8362V43.8065Z" fill="#FF8C00"/>
<path fill-rule="evenodd" clip-rule="evenodd" d="M42.4412 45.345H43.2503V46.1237H43.265C43.3639 45.6941 43.8777 45.2352 44.4074 45.2352C44.6063 45.2352 44.6576 45.2511 44.7332 45.2608V46.1164C44.6124 46.1017 44.4843 46.0785 44.3622 46.0785C43.7727 46.0785 43.304 46.5692 43.304 47.4577V49.38H42.4412V45.345Z" fill="#FF8C00"/>
<path fill-rule="evenodd" clip-rule="evenodd" d="M47.6572 47.0066C47.6267 46.4464 47.2557 45.9387 46.6735 45.9387C46.0742 45.9387 45.6666 46.4061 45.6446 47.0066H47.6572ZM45.6446 47.5912C45.6446 48.2246 45.9766 48.7849 46.6967 48.7849C47.1934 48.7849 47.4973 48.5591 47.6487 48.1136H48.4664C48.2772 48.9972 47.5498 49.4891 46.6967 49.4891C45.4689 49.4891 44.7805 48.6067 44.7805 47.3642C44.7805 46.2169 45.5079 45.2357 46.6735 45.2357C47.905 45.2357 48.6617 46.3829 48.5177 47.5912H45.6446Z" fill="#FF8C00"/>
<path fill-rule="evenodd" clip-rule="evenodd" d="M51.595 47.357C51.3302 47.5364 50.9127 47.5303 50.5368 47.5987C50.1646 47.6621 49.8326 47.8013 49.8326 48.2711C49.8326 48.6678 50.3245 48.785 50.6271 48.785C51.0055 48.785 51.595 48.5824 51.595 48.0209V47.357ZM52.4579 48.4823C52.4579 48.7032 52.5018 48.785 52.6617 48.785C52.7142 48.785 52.7825 48.785 52.8728 48.7703V49.3867C52.7435 49.4343 52.4725 49.488 52.3297 49.488C51.9807 49.488 51.7292 49.3623 51.6633 48.9961C51.3216 49.3403 50.7687 49.488 50.3074 49.488C49.6056 49.488 48.9709 49.0986 48.9709 48.3078C48.9709 47.3033 49.7484 47.1385 50.4758 47.0531C51.0958 46.9372 51.6487 47.0067 51.6487 46.4844C51.6487 46.023 51.1874 45.9376 50.8383 45.9376C50.3538 45.9376 50.0145 46.1402 49.9766 46.5783H49.115C49.1748 45.5397 50.0291 45.2346 50.892 45.2346C51.656 45.2346 52.4579 45.5556 52.4579 46.4075V48.4823Z" fill="#FF8C00"/>
<path fill-rule="evenodd" clip-rule="evenodd" d="M53.4138 43.8064H54.2767V46.9747L55.834 45.3442H56.8934L55.3959 46.8283L57.0374 49.3791H55.9854L54.7917 47.4178L54.2767 47.9353V49.3791H53.4138V43.8064Z" fill="#FF8C00"/>
<path fill-rule="evenodd" clip-rule="evenodd" d="M60.7963 47.1627H62.444L61.6348 44.7693H61.6275H61.6116L60.7963 47.1627ZM61.1283 43.8064H62.134L64.2149 49.3791H63.2019L62.6942 47.9023H60.5388L60.0311 49.3791H59.0559L61.1283 43.8064Z" fill="#FF8C00"/>
<path fill-rule="evenodd" clip-rule="evenodd" d="M64.6358 49.3797H65.4987V43.8082H64.6358V49.3797Z" fill="#FF8C00"/>
<path fill-rule="evenodd" clip-rule="evenodd" d="M69.1252 47.0066C69.0947 46.4464 68.7237 45.9387 68.1415 45.9387C67.5435 45.9387 67.1346 46.4061 67.1139 47.0066H69.1252ZM67.1139 47.5912C67.1139 48.2246 67.4458 48.7849 68.1647 48.7849C68.6627 48.7849 68.9666 48.5591 69.1179 48.1136H69.9344C69.7452 48.9972 69.019 49.4891 68.1647 49.4891C66.9381 49.4891 66.251 48.6067 66.251 47.3642C66.251 46.2169 66.9759 45.2357 68.1415 45.2357C69.3742 45.2357 70.1297 46.3829 69.9869 47.5912H67.1139Z" fill="#FF8C00"/>
<path fill-rule="evenodd" clip-rule="evenodd" d="M70.6484 45.345H71.4576V46.1237H71.4723C71.5711 45.6941 72.0862 45.2352 72.6146 45.2352C72.8124 45.2352 72.8648 45.2511 72.9405 45.2608V46.1164C72.8197 46.1017 72.6915 46.0785 72.5695 46.0785C71.98 46.0785 71.5113 46.5692 71.5113 47.4577V49.38H70.6484V45.345Z" fill="#FF8C00"/>
<path fill-rule="evenodd" clip-rule="evenodd" d="M72.9214 45.345H73.5719V44.1343H74.4336V45.345H75.2122V46.009H74.4336V48.1619C74.4336 48.5268 74.4653 48.7148 74.8498 48.7148C74.973 48.7148 75.0914 48.7148 75.2122 48.6831V49.3702C75.0255 49.3873 74.8424 49.4178 74.6533 49.4178C73.7538 49.4178 73.5878 49.0577 73.5719 48.3877V46.009H72.9214V45.345Z" fill="#FF8C00"/>
<path fill-rule="evenodd" clip-rule="evenodd" d="M80.2027 47.357C79.9378 47.5364 79.5216 47.5303 79.1445 47.5987C78.7735 47.6621 78.4403 47.8013 78.4403 48.2711C78.4403 48.6678 78.9334 48.785 79.2336 48.785C79.6132 48.785 80.2027 48.5824 80.2027 48.0209V47.357ZM81.0643 48.4823C81.0643 48.7032 81.1107 48.785 81.2694 48.785C81.3218 48.785 81.3902 48.785 81.4805 48.7703V49.3867C81.3524 49.4343 81.0802 49.488 80.9374 49.488C80.5883 49.488 80.3381 49.3623 80.271 48.9961C79.9305 49.3403 79.3776 49.488 78.9175 49.488C78.2133 49.488 77.5774 49.0986 77.5774 48.3078C77.5774 47.3033 78.3585 47.1385 79.0835 47.0531C79.7035 46.9372 80.2551 47.0067 80.2551 46.4844C80.2551 46.023 79.795 45.9376 79.4472 45.9376C78.9626 45.9376 78.6221 46.1402 78.5843 46.5783H77.7226C77.7824 45.5397 78.638 45.2346 79.4997 45.2346C80.2637 45.2346 81.0643 45.5556 81.0643 46.4075V48.4823Z" fill="#FF8C00"/>
<path fill-rule="evenodd" clip-rule="evenodd" d="M82.001 45.345H82.8175V45.937L82.8333 45.9528C83.0897 45.5098 83.5364 45.2352 84.0502 45.2352C84.8972 45.2352 85.4354 45.7051 85.4354 46.6082V49.38H84.5713V46.8438C84.5567 46.2104 84.3162 45.937 83.8085 45.937C83.2337 45.937 82.8626 46.4056 82.8626 46.9976V49.38H82.001V45.345Z" fill="#FF8C00"/>
<path fill-rule="evenodd" clip-rule="evenodd" d="M88.1012 48.7848C88.8726 48.7848 89.1984 48.0599 89.1984 47.3569C89.1984 46.4671 88.7823 45.9374 88.1159 45.9374C87.3067 45.9374 87.0174 46.6783 87.0174 47.4033C87.0174 48.0989 87.3531 48.7848 88.1012 48.7848ZM90.0296 49.3792H89.2131V48.8312H89.1984C88.9714 49.2926 88.4796 49.4878 87.9853 49.4878C86.755 49.4878 86.157 48.5456 86.157 47.3337C86.157 45.874 86.9967 45.2344 87.8522 45.2344C88.3429 45.2344 88.886 45.4224 89.1508 45.8654H89.1679V43.8065H90.0296V49.3792Z" fill="#FF8C00"/>
<path fill-rule="evenodd" clip-rule="evenodd" d="M94.1453 46.3428H95.6954C96.2922 46.3428 96.618 46.0389 96.618 45.453C96.618 44.7427 96.1714 44.6036 95.6795 44.6036H94.1453V46.3428ZM93.1995 43.8066H95.7771C96.9586 43.8066 97.5615 44.3692 97.5615 45.3127C97.5615 46.3818 96.8451 46.6552 96.6705 46.7199V46.7333C96.9964 46.7797 97.4736 47.0287 97.4736 47.9111C97.4736 48.5592 97.5615 49.1536 97.7677 49.3793H96.7523C96.6107 49.1352 96.6107 48.8313 96.6107 48.5592C96.6107 47.5364 96.4069 47.0836 95.5367 47.0836H94.1453V49.3793H93.1995V43.8066Z" fill="#FF8C00"/>
<path fill-rule="evenodd" clip-rule="evenodd" d="M101.095 47.0066C101.064 46.4464 100.693 45.9387 100.111 45.9387C99.512 45.9387 99.1056 46.4061 99.0824 47.0066H101.095ZM99.0824 47.5912C99.0824 48.2246 99.4143 48.7849 100.132 48.7849C100.632 48.7849 100.936 48.5591 101.088 48.1136H101.904C101.715 48.9972 100.988 49.4891 100.132 49.4891C98.9078 49.4891 98.2183 48.6067 98.2183 47.3642C98.2183 46.2169 98.9457 45.2357 100.111 45.2357C101.344 45.2357 102.099 46.3829 101.957 47.5912H99.0824Z" fill="#FF8C00"/>
<path fill-rule="evenodd" clip-rule="evenodd" d="M103.27 48.0828C103.315 48.5991 103.696 48.7858 104.156 48.7858C104.481 48.7858 105.047 48.715 105.024 48.2561C105.002 47.7875 104.373 47.7338 103.747 47.5836C103.11 47.4445 102.49 47.2102 102.49 46.39C102.49 45.51 103.414 45.2342 104.126 45.2342C104.926 45.2342 105.653 45.5772 105.76 46.4754H104.858C104.782 46.0556 104.442 45.9372 104.065 45.9372C103.814 45.9372 103.353 45.9995 103.353 46.3497C103.353 46.7867 103.989 46.8501 104.624 46.9978C105.252 47.1479 105.889 47.381 105.889 48.178C105.889 49.1361 104.951 49.4876 104.139 49.4876C103.158 49.4876 102.424 49.036 102.407 48.0828H103.27Z" fill="#FF8C00"/>
<path fill-rule="evenodd" clip-rule="evenodd" d="M108.501 45.9375C107.775 45.9375 107.405 46.5074 107.405 47.3654C107.405 48.1783 107.804 48.7861 108.501 48.7861C109.289 48.7861 109.583 48.0672 109.583 47.3654C109.583 46.6319 109.213 45.9375 108.501 45.9375ZM106.573 45.3443H107.391V45.8899H107.405C107.646 45.4322 108.116 45.2345 108.615 45.2345C109.848 45.2345 110.446 46.2047 110.446 47.3801C110.446 48.4651 109.916 49.4879 108.758 49.4879C108.26 49.4879 107.723 49.3011 107.451 48.8569H107.435V50.8694H106.573V45.3443Z" fill="#FF8C00"/>
<path fill-rule="evenodd" clip-rule="evenodd" d="M114.081 47.357C114.081 46.665 113.74 45.9376 112.969 45.9376C112.197 45.9376 111.857 46.665 111.857 47.357C111.857 48.06 112.197 48.785 112.969 48.785C113.74 48.785 114.081 48.06 114.081 47.357ZM110.994 47.357C110.994 46.1243 111.714 45.2346 112.969 45.2346C114.225 45.2346 114.943 46.1243 114.943 47.357C114.943 48.5982 114.225 49.488 112.969 49.488C111.714 49.488 110.994 48.5982 110.994 47.357Z" fill="#FF8C00"/>
<path fill-rule="evenodd" clip-rule="evenodd" d="M115.666 45.345H116.482V45.937L116.499 45.9528C116.756 45.5098 117.201 45.2352 117.716 45.2352C118.563 45.2352 119.101 45.7051 119.101 46.6082V49.38H118.237V46.8438C118.223 46.2104 117.982 45.937 117.475 45.937C116.901 45.937 116.529 46.4056 116.529 46.9976V49.38H115.666V45.345Z" fill="#FF8C00"/>
<path fill-rule="evenodd" clip-rule="evenodd" d="M120.663 48.0828C120.71 48.5991 121.088 48.7858 121.549 48.7858C121.874 48.7858 122.44 48.715 122.42 48.2561C122.395 47.7875 121.767 47.7338 121.141 47.5836C120.504 47.4445 119.885 47.2102 119.885 46.39C119.885 45.51 120.807 45.2342 121.519 45.2342C122.322 45.2342 123.046 45.5772 123.152 46.4754H122.254C122.177 46.0556 121.836 45.9372 121.457 45.9372C121.208 45.9372 120.746 45.9995 120.746 46.3497C120.746 46.7867 121.385 46.8501 122.017 46.9978C122.645 47.1479 123.281 47.381 123.281 48.178C123.281 49.1361 122.343 49.4876 121.534 49.4876C120.55 49.4876 119.818 49.036 119.802 48.0828H120.663Z" fill="#FF8C00"/>
<path fill-rule="evenodd" clip-rule="evenodd" d="M126.629 47.0066C126.6 46.4464 126.229 45.9387 125.645 45.9387C125.048 45.9387 124.639 46.4061 124.616 47.0066H126.629ZM124.616 47.5912C124.616 48.2246 124.949 48.7849 125.668 48.7849C126.166 48.7849 126.469 48.5591 126.62 48.1136H127.438C127.25 48.9972 126.523 49.4891 125.668 49.4891C124.442 49.4891 123.753 48.6067 123.753 47.3642C123.753 46.2169 124.481 45.2357 125.645 45.2357C126.878 45.2357 127.633 46.3829 127.491 47.5912H124.616Z" fill="#FF8C00"/>
<path fill-rule="evenodd" clip-rule="evenodd" d="M130.19 43.8064H131.187L133.654 47.9109H133.67V43.8064H134.571V49.3791H133.572L131.113 45.2819H131.091V49.3791H130.19V43.8064Z" fill="#FF8C00"/>
<path fill-rule="evenodd" clip-rule="evenodd" d="M138.26 47.0066C138.231 46.4464 137.858 45.9387 137.277 45.9387C136.677 45.9387 136.271 46.4061 136.249 47.0066H138.26ZM136.249 47.5912C136.249 48.2246 136.579 48.7849 137.297 48.7849C137.797 48.7849 138.101 48.5591 138.251 48.1136H139.069C138.88 48.9972 138.154 49.4891 137.297 49.4891C136.073 49.4891 135.385 48.6067 135.385 47.3642C135.385 46.2169 136.111 45.2357 137.277 45.2357C138.509 45.2357 139.264 46.3829 139.122 47.5912H136.249Z" fill="#FF8C00"/>
<path fill-rule="evenodd" clip-rule="evenodd" d="M139.39 45.345H140.042V44.1343H140.902V45.345H141.681V46.009H140.902V48.1619C140.902 48.5268 140.935 48.7148 141.32 48.7148C141.442 48.7148 141.56 48.7148 141.681 48.6831V49.3702C141.494 49.3873 141.312 49.4178 141.122 49.4178C140.224 49.4178 140.054 49.0577 140.042 48.3877V46.009H139.39V45.345Z" fill="#FF8C00"/>
<path fill-rule="evenodd" clip-rule="evenodd" d="M141.951 45.345H142.866L143.629 48.356H143.645L144.378 45.345H145.248L145.953 48.356H145.966L146.762 45.345H147.639L146.414 49.38H145.528L144.803 46.3837H144.787L144.068 49.38H143.16L141.951 45.345Z" fill="#FF8C00"/>
<path fill-rule="evenodd" clip-rule="evenodd" d="M151.102 47.357C151.102 46.665 150.76 45.9376 149.99 45.9376C149.22 45.9376 148.878 46.665 148.878 47.357C148.878 48.06 149.22 48.785 149.99 48.785C150.76 48.785 151.102 48.06 151.102 47.357ZM148.014 47.357C148.014 46.1243 148.734 45.2346 149.99 45.2346C151.246 45.2346 151.966 46.1243 151.966 47.357C151.966 48.5982 151.246 49.488 149.99 49.488C148.734 49.488 148.014 48.5982 148.014 47.357Z" fill="#FF8C00"/>
<path fill-rule="evenodd" clip-rule="evenodd" d="M152.689 45.345H153.498V46.1237H153.513C153.61 45.6941 154.125 45.2352 154.655 45.2352C154.853 45.2352 154.904 45.2511 154.981 45.2608V46.1164C154.86 46.1017 154.732 46.0785 154.61 46.0785C154.019 46.0785 153.55 46.5692 153.55 47.4577V49.38H152.689V45.345Z" fill="#FF8C00"/>
<path fill-rule="evenodd" clip-rule="evenodd" d="M155.376 43.8064H156.238V46.9747L157.796 45.3442H158.855L157.358 46.8283L158.999 49.3791H157.948L156.753 47.4178L156.238 47.9353V49.3791H155.376V43.8064Z" fill="#FF8C00"/>
</g>
</svg>
