<svg width="32" height="32" viewBox="0 0 32 32" fill="none" xmlns="http://www.w3.org/2000/svg">
<path d="M25.3333 28H6.66667C5.194 28 4 26.806 4 25.3333V6.66667C4 5.194 5.194 4 6.66667 4H25.3333C26.806 4 28 5.194 28 6.66667V25.3333C28 26.806 26.806 28 25.3333 28Z" fill="#D3DDEA"/>
<path d="M22.838 22.6667H18.5467L9.21936 9.33333H13.5107L22.838 22.6667ZM19.058 21.536H20.7667L12.9994 10.464H11.2907L19.058 21.536Z" fill="#343741"/>
<path d="M10.5773 22.6667L15.3793 17.104L14.7513 16.2713L9.21533 22.6667H10.5773Z" fill="#343741"/>
<path d="M16.3 14.4807L16.9034 15.34L22.0907 9.33333H20.7574L16.3 14.4807Z" fill="#343741"/>
</svg>
