<svg width="32" height="32" viewBox="0 0 32 32" fill="none" xmlns="http://www.w3.org/2000/svg">
<path d="M2.66667 4H2C0.895431 4 0 4.89543 0 6V26C0 27.1046 0.895431 28 2 28H30C31.1046 28 32 27.1046 32 26V6C32 4.89543 31.1046 4 30 4H2.66667ZM27.3333 6.66667C28.4379 6.66667 29.3333 7.5621 29.3333 8.66667V23.3333C29.3333 24.4379 28.4379 25.3333 27.3333 25.3333H4.66666C3.5621 25.3333 2.66667 24.4379 2.66667 23.3333V8.66666C2.66667 7.5621 3.5621 6.66667 4.66667 6.66667H27.3333ZM13.3333 11.3333C13.3333 10.2288 12.4379 9.33333 11.3333 9.33333H10C8.89543 9.33333 8 10.2288 8 11.3333V12.6667C8 13.7712 8.89543 14.6667 10 14.6667H11.3333C12.4379 14.6667 13.3333 13.7712 13.3333 12.6667V11.3333ZM5.33333 19.3333C5.33333 18.2288 6.22876 17.3333 7.33333 17.3333H14C15.1046 17.3333 16 18.2288 16 19.3333V20.6667C16 21.7712 15.1046 22.6667 14 22.6667H7.33334C6.22877 22.6667 5.33333 21.7712 5.33333 20.6667V19.3333ZM26.6667 10.6667C26.6667 9.93029 26.0697 9.33333 25.3333 9.33333H20C19.2636 9.33333 18.6667 9.93029 18.6667 10.6667V10.6667C18.6667 11.403 19.2636 12 20 12H25.3333C26.0697 12 26.6667 11.403 26.6667 10.6667V10.6667ZM18.6667 16C18.6667 15.2636 19.2636 14.6667 20 14.6667H25.3333C26.0697 14.6667 26.6667 15.2636 26.6667 16V16C26.6667 16.7364 26.0697 17.3333 25.3333 17.3333H20C19.2636 17.3333 18.6667 16.7364 18.6667 16V16ZM26.6667 21.3333C26.6667 20.597 26.0697 20 25.3333 20H20C19.2636 20 18.6667 20.597 18.6667 21.3333V21.3333C18.6667 22.0697 19.2636 22.6667 20 22.6667H25.3333C26.0697 22.6667 26.6667 22.0697 26.6667 21.3333V21.3333Z" fill="white"/>
</svg>
